<svg width="150" height="47" viewBox="0 0 150 47" fill="none" xmlns="http://www.w3.org/2000/svg">
<rect width="150" height="47" fill="#36365B"/>
<path d="M50.3672 10.7598C50.3672 10.3066 50.2012 9.94727 49.8691 9.68164C49.541 9.41211 49.0781 9.27734 48.4805 9.27734C47.9805 9.27734 47.5605 9.41602 47.2207 9.69336C46.8848 9.9668 46.7168 10.3066 46.7168 10.7129H45.5918C45.5918 10.2598 45.7148 9.85352 45.9609 9.49414C46.2109 9.13477 46.5586 8.85547 47.0039 8.65625C47.4492 8.45312 47.9414 8.35156 48.4805 8.35156C49.4336 8.35156 50.1738 8.56641 50.7012 8.99609C51.2285 9.42188 51.4922 10.0156 51.4922 10.7773C51.4922 11.1719 51.3711 11.5312 51.1289 11.8555C50.8867 12.1797 50.5488 12.4355 50.1152 12.623C51.1191 12.959 51.6211 13.625 51.6211 14.6211C51.6211 15.3867 51.3359 15.9941 50.7656 16.4434C50.1953 16.8926 49.4336 17.1172 48.4805 17.1172C47.9141 17.1172 47.3984 17.0176 46.9336 16.8184C46.4727 16.6152 46.1133 16.3281 45.8555 15.957C45.5977 15.5859 45.4688 15.1445 45.4688 14.6328H46.5938C46.5938 15.082 46.7715 15.457 47.127 15.7578C47.4824 16.0547 47.9336 16.2031 48.4805 16.2031C49.0938 16.2031 49.582 16.0605 49.9453 15.7754C50.3125 15.4902 50.4961 15.1133 50.4961 14.6445C50.4961 13.6445 49.877 13.1348 48.6387 13.1152H47.584V12.1895H48.6328C49.2031 12.1777 49.6348 12.0488 49.9277 11.8027C50.2207 11.5566 50.3672 11.209 50.3672 10.7598ZM56.8594 17C56.7969 16.875 56.7461 16.6523 56.707 16.332C56.2031 16.8555 55.6016 17.1172 54.9023 17.1172C54.2773 17.1172 53.7637 16.9414 53.3613 16.5898C52.9629 16.2344 52.7637 15.7852 52.7637 15.2422C52.7637 14.582 53.0137 14.0703 53.5137 13.707C54.0176 13.3398 54.7246 13.1562 55.6348 13.1562H56.6895V12.6582C56.6895 12.2793 56.5762 11.9785 56.3496 11.7559C56.123 11.5293 55.7891 11.416 55.3477 11.416C54.9609 11.416 54.6367 11.5137 54.375 11.709C54.1133 11.9043 53.9824 12.1406 53.9824 12.418H52.8926C52.8926 12.1016 53.0039 11.7969 53.2266 11.5039C53.4531 11.207 53.7578 10.9727 54.1406 10.8008C54.5273 10.6289 54.9512 10.543 55.4121 10.543C56.1426 10.543 56.7148 10.7266 57.1289 11.0938C57.543 11.457 57.7578 11.959 57.7734 12.5996V15.5176C57.7734 16.0996 57.8477 16.5625 57.9961 16.9062V17H56.8594ZM55.0605 16.1738C55.4004 16.1738 55.7227 16.0859 56.0273 15.9102C56.332 15.7344 56.5527 15.5059 56.6895 15.2246V13.9238H55.8398C54.5117 13.9238 53.8477 14.3125 53.8477 15.0898C53.8477 15.4297 53.9609 15.6953 54.1875 15.8867C54.4141 16.0781 54.7051 16.1738 55.0605 16.1738ZM63.5684 11.5566H60.6445V17H59.5547V10.6602H63.5684V11.5566ZM69.8672 13.9004C69.8672 14.8652 69.6465 15.6426 69.2051 16.2324C68.7637 16.8223 68.166 17.1172 67.4121 17.1172C66.6426 17.1172 66.0371 16.873 65.5957 16.3848V19.4375H64.5117V10.6602H65.502L65.5547 11.3633C65.9961 10.8164 66.6094 10.543 67.3945 10.543C68.1562 10.543 68.7578 10.8301 69.1992 11.4043C69.6445 11.9785 69.8672 12.7773 69.8672 13.8008V13.9004ZM68.7832 13.7773C68.7832 13.0625 68.6309 12.498 68.3262 12.084C68.0215 11.6699 67.6035 11.4629 67.0723 11.4629C66.416 11.4629 65.9238 11.7539 65.5957 12.3359V15.3652C65.9199 15.9434 66.416 16.2324 67.084 16.2324C67.6035 16.2324 68.0156 16.0273 68.3203 15.6172C68.6289 15.2031 68.7832 14.5898 68.7832 13.7773ZM73.2539 15.4121L74.7305 10.6602H75.8906L73.3418 17.9785C72.9473 19.0332 72.3203 19.5605 71.4609 19.5605L71.2559 19.543L70.8516 19.4668V18.5879L71.1445 18.6113C71.5117 18.6113 71.7969 18.5371 72 18.3887C72.207 18.2402 72.377 17.9688 72.5098 17.5742L72.75 16.9297L70.4883 10.6602H71.6719L73.2539 15.4121ZM80.3496 12.3945C80.3496 12.0977 80.2363 11.8633 80.0098 11.6914C79.7832 11.5156 79.4727 11.4277 79.0781 11.4277C78.6953 11.4277 78.375 11.5273 78.1172 11.7266C77.8633 11.9258 77.7363 12.1602 77.7363 12.4297H76.6582C76.6582 11.8789 76.8887 11.4277 77.3496 11.0762C77.8105 10.7246 78.3867 10.5488 79.0781 10.5488C79.8203 10.5488 80.3984 10.709 80.8125 11.0293C81.2266 11.3457 81.4336 11.7988 81.4336 12.3887C81.4336 12.6738 81.3477 12.9355 81.1758 13.1738C81.0039 13.4121 80.7598 13.6016 80.4434 13.7422C81.1816 13.9922 81.5508 14.4844 81.5508 15.2188C81.5508 15.8008 81.3262 16.2617 80.877 16.6016C80.4277 16.9414 79.8281 17.1113 79.0781 17.1113C78.3477 17.1113 77.7441 16.9336 77.2676 16.5781C76.7949 16.2188 76.5586 15.7344 76.5586 15.125H77.6367C77.6367 15.4336 77.7734 15.6992 78.0469 15.9219C78.3242 16.1406 78.668 16.25 79.0781 16.25C79.4922 16.25 79.8262 16.1543 80.0801 15.9629C80.334 15.7715 80.4609 15.5234 80.4609 15.2188C80.4609 14.8633 80.3535 14.6094 80.1387 14.457C79.9277 14.3008 79.5977 14.2227 79.1484 14.2227H78.0645V13.3086H79.2422C79.9805 13.2891 80.3496 12.9844 80.3496 12.3945ZM87.0586 10.6602H88.1426V17H87.0586V12.377L84.1348 17H83.0508V10.6602H84.1348V15.2891L87.0586 10.6602ZM94.5938 11.5391H92.4668V17H91.3828V11.5391H89.2969V10.6602H94.5938V11.5391ZM97.8105 17.1172C96.9512 17.1172 96.252 16.8359 95.7129 16.2734C95.1738 15.707 94.9043 14.9512 94.9043 14.0059V13.8066C94.9043 13.1777 95.0234 12.6172 95.2617 12.125C95.5039 11.6289 95.8398 11.2422 96.2695 10.9648C96.7031 10.6836 97.1719 10.543 97.6758 10.543C98.5 10.543 99.1406 10.8145 99.5977 11.3574C100.055 11.9004 100.283 12.6777 100.283 13.6895V14.1406H95.9883C96.0039 14.7656 96.1855 15.2715 96.5332 15.6582C96.8848 16.041 97.3301 16.2324 97.8691 16.2324C98.252 16.2324 98.5762 16.1543 98.8418 15.998C99.1074 15.8418 99.3398 15.6348 99.5391 15.377L100.201 15.8926C99.6699 16.709 98.873 17.1172 97.8105 17.1172ZM97.6758 11.4336C97.2383 11.4336 96.8711 11.5938 96.5742 11.9141C96.2773 12.2305 96.0938 12.6758 96.0234 13.25H99.1992V13.168C99.168 12.6172 99.0195 12.1914 98.7539 11.8906C98.4883 11.5859 98.1289 11.4336 97.6758 11.4336ZM104.619 17V10.6602H107.092C107.936 10.6602 108.582 10.8086 109.031 11.1055C109.484 11.3984 109.711 11.8301 109.711 12.4004C109.711 12.6934 109.623 12.959 109.447 13.1973C109.271 13.4316 109.012 13.6113 108.668 13.7363C109.051 13.8262 109.357 14.002 109.588 14.2637C109.822 14.5254 109.939 14.8379 109.939 15.2012C109.939 15.7832 109.725 16.2285 109.295 16.5371C108.869 16.8457 108.266 17 107.484 17H104.619ZM105.703 14.2168V16.127H107.496C107.949 16.127 108.287 16.043 108.51 15.875C108.736 15.707 108.85 15.4707 108.85 15.166C108.85 14.5332 108.385 14.2168 107.455 14.2168H105.703ZM105.703 13.3496H107.104C108.119 13.3496 108.627 13.0527 108.627 12.459C108.627 11.8652 108.146 11.5586 107.186 11.5391H105.703V13.3496Z" fill="white"/>
<path d="M53.5518 30.6602H48.1904L46.9863 34H45.2461L50.1328 21.2031H51.6094L56.5049 34H54.7734L53.5518 30.6602ZM48.7002 29.2715H53.0508L50.8711 23.2861L48.7002 29.2715ZM66.0059 29.3506C66.0059 30.7979 65.6748 31.9639 65.0127 32.8486C64.3506 33.7334 63.4541 34.1758 62.3232 34.1758C61.1689 34.1758 60.2607 33.8096 59.5986 33.0771V37.6562H57.9727V24.4902H59.458L59.5371 25.5449C60.1992 24.7246 61.1191 24.3145 62.2969 24.3145C63.4395 24.3145 64.3418 24.7451 65.0039 25.6064C65.6719 26.4678 66.0059 27.666 66.0059 29.2012V29.3506ZM64.3799 29.166C64.3799 28.0938 64.1514 27.2471 63.6943 26.626C63.2373 26.0049 62.6104 25.6943 61.8135 25.6943C60.8291 25.6943 60.0908 26.1309 59.5986 27.0039V31.5479C60.085 32.415 60.8291 32.8486 61.8311 32.8486C62.6104 32.8486 63.2285 32.541 63.6855 31.9258C64.1484 31.3047 64.3799 30.3848 64.3799 29.166ZM76.1133 29.3506C76.1133 30.7979 75.7822 31.9639 75.1201 32.8486C74.458 33.7334 73.5615 34.1758 72.4307 34.1758C71.2764 34.1758 70.3682 33.8096 69.7061 33.0771V37.6562H68.0801V24.4902H69.5654L69.6445 25.5449C70.3066 24.7246 71.2266 24.3145 72.4043 24.3145C73.5469 24.3145 74.4492 24.7451 75.1113 25.6064C75.7793 26.4678 76.1133 27.666 76.1133 29.2012V29.3506ZM74.4873 29.166C74.4873 28.0938 74.2588 27.2471 73.8018 26.626C73.3447 26.0049 72.7178 25.6943 71.9209 25.6943C70.9365 25.6943 70.1982 26.1309 69.7061 27.0039V31.5479C70.1924 32.415 70.9365 32.8486 71.9385 32.8486C72.7178 32.8486 73.3359 32.541 73.793 31.9258C74.2559 31.3047 74.4873 30.3848 74.4873 29.166ZM86.6777 28.2959C85.2305 27.8799 84.1758 27.3701 83.5137 26.7666C82.8574 26.1572 82.5293 25.4072 82.5293 24.5166C82.5293 23.5088 82.9307 22.6768 83.7334 22.0205C84.542 21.3584 85.5908 21.0273 86.8799 21.0273C87.7588 21.0273 88.541 21.1973 89.2266 21.5371C89.918 21.877 90.4512 22.3457 90.8262 22.9434C91.207 23.541 91.3975 24.1943 91.3975 24.9033H89.7012C89.7012 24.1299 89.4551 23.5234 88.9629 23.084C88.4707 22.6387 87.7764 22.416 86.8799 22.416C86.0479 22.416 85.3975 22.6006 84.9287 22.9697C84.4658 23.333 84.2344 23.8398 84.2344 24.4902C84.2344 25.0117 84.4541 25.4541 84.8936 25.8174C85.3389 26.1748 86.0918 26.5029 87.1523 26.8018C88.2188 27.1006 89.0508 27.4316 89.6484 27.7949C90.252 28.1523 90.6973 28.5713 90.9844 29.0518C91.2773 29.5322 91.4238 30.0977 91.4238 30.748C91.4238 31.7852 91.0195 32.6172 90.2109 33.2441C89.4023 33.8652 88.3213 34.1758 86.9678 34.1758C86.0889 34.1758 85.2686 34.0088 84.5068 33.6748C83.7451 33.335 83.1562 32.8721 82.7402 32.2861C82.3301 31.7002 82.125 31.0352 82.125 30.291H83.8213C83.8213 31.0645 84.1055 31.6768 84.6738 32.1279C85.248 32.5732 86.0127 32.7959 86.9678 32.7959C87.8584 32.7959 88.541 32.6143 89.0156 32.251C89.4902 31.8877 89.7275 31.3926 89.7275 30.7656C89.7275 30.1387 89.5078 29.6553 89.0684 29.3154C88.6289 28.9697 87.832 28.6299 86.6777 28.2959ZM95.5459 22.1875V24.4902H97.3213V25.7471H95.5459V31.6445C95.5459 32.0254 95.625 32.3125 95.7832 32.5059C95.9414 32.6934 96.2109 32.7871 96.5918 32.7871C96.7793 32.7871 97.0371 32.752 97.3652 32.6816V34C96.9375 34.1172 96.5215 34.1758 96.1172 34.1758C95.3906 34.1758 94.8428 33.9561 94.4736 33.5166C94.1045 33.0771 93.9199 32.4531 93.9199 31.6445V25.7471H92.1885V24.4902H93.9199V22.1875H95.5459ZM98.6221 29.1572C98.6221 28.2256 98.8037 27.3877 99.167 26.6436C99.5361 25.8994 100.046 25.3252 100.696 24.9209C101.353 24.5166 102.1 24.3145 102.938 24.3145C104.232 24.3145 105.278 24.7627 106.075 25.6592C106.878 26.5557 107.279 27.748 107.279 29.2363V29.3506C107.279 30.2764 107.101 31.1084 106.743 31.8467C106.392 32.5791 105.885 33.1504 105.223 33.5605C104.566 33.9707 103.811 34.1758 102.955 34.1758C101.666 34.1758 100.62 33.7275 99.8174 32.8311C99.0205 31.9346 98.6221 30.748 98.6221 29.2715V29.1572ZM100.257 29.3506C100.257 30.4053 100.5 31.252 100.986 31.8906C101.479 32.5293 102.135 32.8486 102.955 32.8486C103.781 32.8486 104.438 32.5264 104.924 31.8818C105.41 31.2314 105.653 30.3232 105.653 29.1572C105.653 28.1143 105.404 27.2705 104.906 26.626C104.414 25.9756 103.758 25.6504 102.938 25.6504C102.135 25.6504 101.487 25.9697 100.995 26.6084C100.503 27.2471 100.257 28.1611 100.257 29.3506ZM113.915 25.9492C113.669 25.9082 113.402 25.8877 113.115 25.8877C112.049 25.8877 111.325 26.3418 110.944 27.25V34H109.318V24.4902H110.9L110.927 25.5889C111.46 24.7393 112.216 24.3145 113.194 24.3145C113.511 24.3145 113.751 24.3555 113.915 24.4375V25.9492ZM119.188 34.1758C117.899 34.1758 116.851 33.7539 116.042 32.9102C115.233 32.0605 114.829 30.9268 114.829 29.5088V29.21C114.829 28.2666 115.008 27.4258 115.365 26.6875C115.729 25.9434 116.232 25.3633 116.877 24.9473C117.527 24.5254 118.23 24.3145 118.986 24.3145C120.223 24.3145 121.184 24.7217 121.869 25.5361C122.555 26.3506 122.897 27.5166 122.897 29.0342V29.7109H116.455C116.479 30.6484 116.751 31.4072 117.272 31.9873C117.8 32.5615 118.468 32.8486 119.276 32.8486C119.851 32.8486 120.337 32.7314 120.735 32.4971C121.134 32.2627 121.482 31.9521 121.781 31.5654L122.774 32.3389C121.978 33.5635 120.782 34.1758 119.188 34.1758ZM118.986 25.6504C118.33 25.6504 117.779 25.8906 117.334 26.3711C116.889 26.8457 116.613 27.5137 116.508 28.375H121.271V28.252C121.225 27.4258 121.002 26.7871 120.604 26.3359C120.205 25.8789 119.666 25.6504 118.986 25.6504Z" fill="white"/>
<path d="M36.129 31.648C35.002 33.294 33.836 34.93 31.995 34.964C30.183 34.998 29.602 33.892 27.535 33.892C25.465 33.892 24.818 34.93 23.107 34.998C21.33 35.065 19.979 33.221 18.842 31.582C16.521 28.232 14.748 22.109 17.132 17.977C18.312 15.926 20.427 14.627 22.718 14.593C24.464 14.561 26.112 15.768 27.178 15.768C28.246 15.768 30.248 14.318 32.351 14.531C33.231 14.568 35.703 14.886 37.291 17.205C37.165 17.287 34.341 18.928 34.375 22.347C34.409 26.431 37.959 27.788 38 27.807C37.968 27.903 37.433 29.745 36.129 31.647V31.648ZM28.399 10.045C29.374 8.905 31.02 8.057 32.379 8C32.552 9.584 31.914 11.17 30.972 12.312C30.028 13.452 28.482 14.342 26.965 14.222C26.759 12.673 27.524 11.058 28.4 10.045H28.399Z" fill="white"/>
</svg>
