<svg width="16" height="16" viewBox="0 0 16 16" fill="none" xmlns="http://www.w3.org/2000/svg">
<path fill-rule="evenodd" clip-rule="evenodd" d="M1.64689 4.646C1.69334 4.59944 1.74852 4.56249 1.80926 4.53729C1.87001 4.51208 1.93513 4.49911 2.00089 4.49911C2.06666 4.49911 2.13178 4.51208 2.19253 4.53729C2.25327 4.56249 2.30845 4.59944 2.35489 4.646L8.00089 10.293L13.6469 4.646C13.6934 4.59951 13.7486 4.56264 13.8093 4.53748C13.87 4.51232 13.9351 4.49937 14.0009 4.49937C14.0666 4.49937 14.1317 4.51232 14.1925 4.53748C14.2532 4.56264 14.3084 4.59951 14.3549 4.646C14.4014 4.69249 14.4383 4.74768 14.4634 4.80842C14.4886 4.86916 14.5015 4.93426 14.5015 5C14.5015 5.06574 14.4886 5.13085 14.4634 5.19158C14.4383 5.25232 14.4014 5.30751 14.3549 5.354L8.35489 11.354C8.30845 11.4006 8.25327 11.4375 8.19253 11.4627C8.13178 11.4879 8.06666 11.5009 8.00089 11.5009C7.93513 11.5009 7.87001 11.4879 7.80926 11.4627C7.74851 11.4375 7.69334 11.4006 7.64689 11.354L1.64689 5.354C1.60033 5.30756 1.56339 5.25238 1.53818 5.19163C1.51297 5.13089 1.5 5.06577 1.5 5C1.5 4.93423 1.51297 4.86911 1.53818 4.80837C1.56339 4.74762 1.60033 4.69245 1.64689 4.646Z" fill="black"/>
</svg>
