<svg width="18" height="18" viewBox="0 0 18 18" fill="none" xmlns="http://www.w3.org/2000/svg">
<path fill-rule="evenodd" clip-rule="evenodd" d="M5.22672 16.1482C5.17434 16.096 5.13278 16.0339 5.10442 15.9656C5.07606 15.8972 5.06147 15.824 5.06147 15.75C5.06147 15.676 5.07606 15.6027 5.10442 15.5344C5.13278 15.466 5.17434 15.404 5.22672 15.3517L11.5796 8.99997L5.22672 2.64822C5.1211 2.5426 5.06176 2.39934 5.06176 2.24997C5.06176 2.1006 5.1211 1.95734 5.22672 1.85172C5.33234 1.7461 5.4756 1.68676 5.62497 1.68676C5.77434 1.68676 5.9176 1.7461 6.02322 1.85172L12.7732 8.60172C12.8256 8.65397 12.8672 8.71604 12.8955 8.78438C12.9239 8.85272 12.9385 8.92598 12.9385 8.99997C12.9385 9.07396 12.9239 9.14722 12.8955 9.21556C12.8672 9.2839 12.8256 9.34597 12.7732 9.39822L6.02322 16.1482C5.97097 16.2006 5.9089 16.2422 5.84056 16.2705C5.77222 16.2989 5.69896 16.3135 5.62497 16.3135C5.55098 16.3135 5.47772 16.2989 5.40938 16.2705C5.34105 16.2422 5.27897 16.2006 5.22672 16.1482Z" fill="white"/>
</svg>
