<svg width="16" height="16" viewBox="0 0 16 16" fill="none" xmlns="http://www.w3.org/2000/svg">
<path fill-rule="evenodd" clip-rule="evenodd" d="M10.854 5.14592C10.9006 5.19236 10.9375 5.24754 10.9627 5.30828C10.9879 5.36903 11.0009 5.43415 11.0009 5.49992C11.0009 5.56568 10.9879 5.63081 10.9627 5.69155C10.9375 5.7523 10.9006 5.80747 10.854 5.85392L7.85402 8.85392C7.80758 8.90048 7.7524 8.93742 7.69166 8.96263C7.63091 8.98784 7.56579 9.00081 7.50002 9.00081C7.43425 9.00081 7.36913 8.98784 7.30839 8.96263C7.24764 8.93742 7.19247 8.90048 7.14602 8.85392L5.64602 7.35392C5.59953 7.30743 5.56266 7.25224 5.5375 7.1915C5.51234 7.13076 5.49939 7.06566 5.49939 6.99992C5.49939 6.93417 5.51234 6.86907 5.5375 6.80833C5.56266 6.74759 5.59953 6.6924 5.64602 6.64592C5.69251 6.59943 5.7477 6.56255 5.80844 6.53739C5.86918 6.51223 5.93428 6.49929 6.00002 6.49929C6.06577 6.49929 6.13087 6.51223 6.19161 6.53739C6.25234 6.56255 6.30753 6.59943 6.35402 6.64592L7.50002 7.79292L10.146 5.14592C10.1925 5.09935 10.2476 5.06241 10.3084 5.0372C10.3691 5.012 10.4343 4.99902 10.5 4.99902C10.5658 4.99902 10.6309 5.012 10.6917 5.0372C10.7524 5.06241 10.8076 5.09935 10.854 5.14592Z" fill="#0084FF"/>
<path d="M2 2C2 1.46957 2.21071 0.960859 2.58579 0.585786C2.96086 0.210714 3.46957 0 4 0L12 0C12.5304 0 13.0391 0.210714 13.4142 0.585786C13.7893 0.960859 14 1.46957 14 2V15.5C14 15.5904 13.9754 15.6792 13.9289 15.7568C13.8824 15.8343 13.8157 15.8979 13.736 15.9405C13.6563 15.9832 13.5664 16.0035 13.4761 15.9992C13.3858 15.9948 13.2983 15.9661 13.223 15.916L8 13.101L2.777 15.916C2.70171 15.9661 2.61423 15.9948 2.52389 15.9992C2.43355 16.0035 2.34373 15.9832 2.264 15.9405C2.18427 15.8979 2.1176 15.8343 2.07111 15.7568C2.02462 15.6792 2.00005 15.5904 2 15.5V2ZM4 1C3.73478 1 3.48043 1.10536 3.29289 1.29289C3.10536 1.48043 3 1.73478 3 2V14.566L7.723 12.084C7.80506 12.0294 7.90143 12.0003 8 12.0003C8.09857 12.0003 8.19494 12.0294 8.277 12.084L13 14.566V2C13 1.73478 12.8946 1.48043 12.7071 1.29289C12.5196 1.10536 12.2652 1 12 1H4Z" fill="#0084FF"/>
</svg>
