<svg width="32" height="32" viewBox="0 0 32 32" fill="none" xmlns="http://www.w3.org/2000/svg">
<g clip-path="url(#clip0_108_104)">
<path d="M8 12.0002C9.06087 12.0002 10.0783 12.4216 10.8284 13.1718C11.5786 13.9219 12 14.9393 12 16.0002C12 17.0611 11.5786 18.0785 10.8284 18.8286C10.0783 19.5788 9.06087 20.0002 8 20.0002C6.93913 20.0002 5.92172 19.5788 5.17157 18.8286C4.42143 18.0785 4 17.0611 4 16.0002C4 14.9393 4.42143 13.9219 5.17157 13.1718C5.92172 12.4216 6.93913 12.0002 8 12.0002ZM13.25 13.0942C12.6478 12.0047 11.7217 11.1295 10.6 10.5898C9.47822 10.0501 8.21637 9.87268 6.98929 10.0821C5.76221 10.2915 4.63064 10.8774 3.75138 11.7586C2.87213 12.6398 2.28872 13.7727 2.082 15.0002H1C0.734784 15.0002 0.48043 15.1056 0.292893 15.2931C0.105357 15.4806 0 15.735 0 16.0002C0 16.2654 0.105357 16.5198 0.292893 16.7073C0.48043 16.8949 0.734784 17.0002 1 17.0002H2.082C2.33019 18.4861 3.12822 19.8242 4.31757 20.7488C5.50691 21.6733 7.00053 22.1167 8.50169 21.9907C10.0028 21.8647 11.4017 21.1787 12.4203 20.0689C13.439 18.9591 14.0029 17.5067 14 16.0002C14 15.4698 14.2107 14.9611 14.5858 14.586C14.9609 14.2109 15.4696 14.0002 16 14.0002C16.5304 14.0002 17.0391 14.2109 17.4142 14.586C17.7893 14.9611 18 15.4698 18 16.0002C17.9971 17.5067 18.561 18.9591 19.5797 20.0689C20.5983 21.1787 21.9972 21.8647 23.4983 21.9907C24.9995 22.1167 26.4931 21.6733 27.6824 20.7488C28.8718 19.8242 29.6698 18.4861 29.918 17.0002H31C31.2652 17.0002 31.5196 16.8949 31.7071 16.7073C31.8946 16.5198 32 16.2654 32 16.0002C32 15.735 31.8946 15.4806 31.7071 15.2931C31.5196 15.1056 31.2652 15.0002 31 15.0002H29.918C29.7113 13.7727 29.1279 12.6398 28.2486 11.7586C27.3694 10.8774 26.2378 10.2915 25.0107 10.0821C23.7836 9.87268 22.5218 10.0501 21.4 10.5898C20.2783 11.1295 19.3522 12.0047 18.75 13.0942C18.0077 12.3901 17.0231 11.9984 16 12.0002C14.936 12.0002 13.968 12.4162 13.25 13.0942ZM28 16.0002C28 17.0611 27.5786 18.0785 26.8284 18.8286C26.0783 19.5788 25.0609 20.0002 24 20.0002C22.9391 20.0002 21.9217 19.5788 21.1716 18.8286C20.4214 18.0785 20 17.0611 20 16.0002C20 14.9393 20.4214 13.9219 21.1716 13.1718C21.9217 12.4216 22.9391 12.0002 24 12.0002C25.0609 12.0002 26.0783 12.4216 26.8284 13.1718C27.5786 13.9219 28 14.9393 28 16.0002Z" fill="white"/>
</g>
<defs>
<clipPath id="clip0_108_104">
<rect width="32" height="32" fill="white"/>
</clipPath>
</defs>
</svg>
