<svg width="150" height="47" viewBox="0 0 150 47" fill="none" xmlns="http://www.w3.org/2000/svg">
<rect width="150" height="47" fill="#36365B"/>
<path d="M50.3672 10.7598C50.3672 10.3066 50.2012 9.94727 49.8691 9.68164C49.541 9.41211 49.0781 9.27734 48.4805 9.27734C47.9805 9.27734 47.5605 9.41602 47.2207 9.69336C46.8848 9.9668 46.7168 10.3066 46.7168 10.7129H45.5918C45.5918 10.2598 45.7148 9.85352 45.9609 9.49414C46.2109 9.13477 46.5586 8.85547 47.0039 8.65625C47.4492 8.45312 47.9414 8.35156 48.4805 8.35156C49.4336 8.35156 50.1738 8.56641 50.7012 8.99609C51.2285 9.42188 51.4922 10.0156 51.4922 10.7773C51.4922 11.1719 51.3711 11.5312 51.1289 11.8555C50.8867 12.1797 50.5488 12.4355 50.1152 12.623C51.1191 12.959 51.6211 13.625 51.6211 14.6211C51.6211 15.3867 51.3359 15.9941 50.7656 16.4434C50.1953 16.8926 49.4336 17.1172 48.4805 17.1172C47.9141 17.1172 47.3984 17.0176 46.9336 16.8184C46.4727 16.6152 46.1133 16.3281 45.8555 15.957C45.5977 15.5859 45.4688 15.1445 45.4688 14.6328H46.5938C46.5938 15.082 46.7715 15.457 47.127 15.7578C47.4824 16.0547 47.9336 16.2031 48.4805 16.2031C49.0938 16.2031 49.582 16.0605 49.9453 15.7754C50.3125 15.4902 50.4961 15.1133 50.4961 14.6445C50.4961 13.6445 49.877 13.1348 48.6387 13.1152H47.584V12.1895H48.6328C49.2031 12.1777 49.6348 12.0488 49.9277 11.8027C50.2207 11.5566 50.3672 11.209 50.3672 10.7598ZM56.8594 17C56.7969 16.875 56.7461 16.6523 56.707 16.332C56.2031 16.8555 55.6016 17.1172 54.9023 17.1172C54.2773 17.1172 53.7637 16.9414 53.3613 16.5898C52.9629 16.2344 52.7637 15.7852 52.7637 15.2422C52.7637 14.582 53.0137 14.0703 53.5137 13.707C54.0176 13.3398 54.7246 13.1562 55.6348 13.1562H56.6895V12.6582C56.6895 12.2793 56.5762 11.9785 56.3496 11.7559C56.123 11.5293 55.7891 11.416 55.3477 11.416C54.9609 11.416 54.6367 11.5137 54.375 11.709C54.1133 11.9043 53.9824 12.1406 53.9824 12.418H52.8926C52.8926 12.1016 53.0039 11.7969 53.2266 11.5039C53.4531 11.207 53.7578 10.9727 54.1406 10.8008C54.5273 10.6289 54.9512 10.543 55.4121 10.543C56.1426 10.543 56.7148 10.7266 57.1289 11.0938C57.543 11.457 57.7578 11.959 57.7734 12.5996V15.5176C57.7734 16.0996 57.8477 16.5625 57.9961 16.9062V17H56.8594ZM55.0605 16.1738C55.4004 16.1738 55.7227 16.0859 56.0273 15.9102C56.332 15.7344 56.5527 15.5059 56.6895 15.2246V13.9238H55.8398C54.5117 13.9238 53.8477 14.3125 53.8477 15.0898C53.8477 15.4297 53.9609 15.6953 54.1875 15.8867C54.4141 16.0781 54.7051 16.1738 55.0605 16.1738ZM63.5684 11.5566H60.6445V17H59.5547V10.6602H63.5684V11.5566ZM69.8672 13.9004C69.8672 14.8652 69.6465 15.6426 69.2051 16.2324C68.7637 16.8223 68.166 17.1172 67.4121 17.1172C66.6426 17.1172 66.0371 16.873 65.5957 16.3848V19.4375H64.5117V10.6602H65.502L65.5547 11.3633C65.9961 10.8164 66.6094 10.543 67.3945 10.543C68.1562 10.543 68.7578 10.8301 69.1992 11.4043C69.6445 11.9785 69.8672 12.7773 69.8672 13.8008V13.9004ZM68.7832 13.7773C68.7832 13.0625 68.6309 12.498 68.3262 12.084C68.0215 11.6699 67.6035 11.4629 67.0723 11.4629C66.416 11.4629 65.9238 11.7539 65.5957 12.3359V15.3652C65.9199 15.9434 66.416 16.2324 67.084 16.2324C67.6035 16.2324 68.0156 16.0273 68.3203 15.6172C68.6289 15.2031 68.7832 14.5898 68.7832 13.7773ZM73.2539 15.4121L74.7305 10.6602H75.8906L73.3418 17.9785C72.9473 19.0332 72.3203 19.5605 71.4609 19.5605L71.2559 19.543L70.8516 19.4668V18.5879L71.1445 18.6113C71.5117 18.6113 71.7969 18.5371 72 18.3887C72.207 18.2402 72.377 17.9688 72.5098 17.5742L72.75 16.9297L70.4883 10.6602H71.6719L73.2539 15.4121ZM80.3496 12.3945C80.3496 12.0977 80.2363 11.8633 80.0098 11.6914C79.7832 11.5156 79.4727 11.4277 79.0781 11.4277C78.6953 11.4277 78.375 11.5273 78.1172 11.7266C77.8633 11.9258 77.7363 12.1602 77.7363 12.4297H76.6582C76.6582 11.8789 76.8887 11.4277 77.3496 11.0762C77.8105 10.7246 78.3867 10.5488 79.0781 10.5488C79.8203 10.5488 80.3984 10.709 80.8125 11.0293C81.2266 11.3457 81.4336 11.7988 81.4336 12.3887C81.4336 12.6738 81.3477 12.9355 81.1758 13.1738C81.0039 13.4121 80.7598 13.6016 80.4434 13.7422C81.1816 13.9922 81.5508 14.4844 81.5508 15.2188C81.5508 15.8008 81.3262 16.2617 80.877 16.6016C80.4277 16.9414 79.8281 17.1113 79.0781 17.1113C78.3477 17.1113 77.7441 16.9336 77.2676 16.5781C76.7949 16.2188 76.5586 15.7344 76.5586 15.125H77.6367C77.6367 15.4336 77.7734 15.6992 78.0469 15.9219C78.3242 16.1406 78.668 16.25 79.0781 16.25C79.4922 16.25 79.8262 16.1543 80.0801 15.9629C80.334 15.7715 80.4609 15.5234 80.4609 15.2188C80.4609 14.8633 80.3535 14.6094 80.1387 14.457C79.9277 14.3008 79.5977 14.2227 79.1484 14.2227H78.0645V13.3086H79.2422C79.9805 13.2891 80.3496 12.9844 80.3496 12.3945ZM87.0586 10.6602H88.1426V17H87.0586V12.377L84.1348 17H83.0508V10.6602H84.1348V15.2891L87.0586 10.6602ZM94.5938 11.5391H92.4668V17H91.3828V11.5391H89.2969V10.6602H94.5938V11.5391ZM97.8105 17.1172C96.9512 17.1172 96.252 16.8359 95.7129 16.2734C95.1738 15.707 94.9043 14.9512 94.9043 14.0059V13.8066C94.9043 13.1777 95.0234 12.6172 95.2617 12.125C95.5039 11.6289 95.8398 11.2422 96.2695 10.9648C96.7031 10.6836 97.1719 10.543 97.6758 10.543C98.5 10.543 99.1406 10.8145 99.5977 11.3574C100.055 11.9004 100.283 12.6777 100.283 13.6895V14.1406H95.9883C96.0039 14.7656 96.1855 15.2715 96.5332 15.6582C96.8848 16.041 97.3301 16.2324 97.8691 16.2324C98.252 16.2324 98.5762 16.1543 98.8418 15.998C99.1074 15.8418 99.3398 15.6348 99.5391 15.377L100.201 15.8926C99.6699 16.709 98.873 17.1172 97.8105 17.1172ZM97.6758 11.4336C97.2383 11.4336 96.8711 11.5938 96.5742 11.9141C96.2773 12.2305 96.0938 12.6758 96.0234 13.25H99.1992V13.168C99.168 12.6172 99.0195 12.1914 98.7539 11.8906C98.4883 11.5859 98.1289 11.4336 97.6758 11.4336ZM104.619 17V10.6602H107.092C107.936 10.6602 108.582 10.8086 109.031 11.1055C109.484 11.3984 109.711 11.8301 109.711 12.4004C109.711 12.6934 109.623 12.959 109.447 13.1973C109.271 13.4316 109.012 13.6113 108.668 13.7363C109.051 13.8262 109.357 14.002 109.588 14.2637C109.822 14.5254 109.939 14.8379 109.939 15.2012C109.939 15.7832 109.725 16.2285 109.295 16.5371C108.869 16.8457 108.266 17 107.484 17H104.619ZM105.703 14.2168V16.127H107.496C107.949 16.127 108.287 16.043 108.51 15.875C108.736 15.707 108.85 15.4707 108.85 15.166C108.85 14.5332 108.385 14.2168 107.455 14.2168H105.703ZM105.703 13.3496H107.104C108.119 13.3496 108.627 13.0527 108.627 12.459C108.627 11.8652 108.146 11.5586 107.186 11.5391H105.703V13.3496Z" fill="white"/>
<path d="M53.7188 33.5078C53.3333 34.0599 52.7943 34.474 52.1016 34.75C51.4141 35.0208 50.612 35.1562 49.6953 35.1562C48.7682 35.1562 47.9453 34.9401 47.2266 34.5078C46.5078 34.0703 45.9505 33.4505 45.5547 32.6484C45.1641 31.8464 44.9635 30.9167 44.9531 29.8594V28.8672C44.9531 27.1536 45.3516 25.8255 46.1484 24.8828C46.9505 23.9401 48.0755 23.4688 49.5234 23.4688C50.7109 23.4688 51.6667 23.7734 52.3906 24.3828C53.1146 24.987 53.5573 25.8464 53.7188 26.9609H52.2188C51.9375 25.4557 51.0417 24.7031 49.5312 24.7031C48.526 24.7031 47.763 25.0573 47.2422 25.7656C46.7266 26.4688 46.4661 27.4896 46.4609 28.8281V29.7578C46.4609 31.0339 46.7526 32.0495 47.3359 32.8047C47.9193 33.5547 48.7083 33.9297 49.7031 33.9297C50.2656 33.9297 50.7578 33.8672 51.1797 33.7422C51.6016 33.6172 51.9505 33.4062 52.2266 33.1094V30.5547H49.5938V29.3359H53.7188V33.5078ZM55.6172 30.6953C55.6172 29.8672 55.7786 29.1224 56.1016 28.4609C56.4297 27.7995 56.8828 27.2891 57.4609 26.9297C58.0443 26.5703 58.7083 26.3906 59.4531 26.3906C60.6042 26.3906 61.5339 26.7891 62.2422 27.5859C62.9557 28.3828 63.3125 29.4427 63.3125 30.7656V30.8672C63.3125 31.6901 63.1536 32.4297 62.8359 33.0859C62.5234 33.737 62.0729 34.2448 61.4844 34.6094C60.901 34.974 60.2292 35.1562 59.4688 35.1562C58.3229 35.1562 57.3932 34.7578 56.6797 33.9609C55.9714 33.1641 55.6172 32.1094 55.6172 30.7969V30.6953ZM57.0703 30.8672C57.0703 31.8047 57.2865 32.5573 57.7188 33.125C58.1562 33.6927 58.7396 33.9766 59.4688 33.9766C60.2031 33.9766 60.7865 33.6901 61.2188 33.1172C61.651 32.5391 61.8672 31.7318 61.8672 30.6953C61.8672 29.7682 61.6458 29.0182 61.2031 28.4453C60.7656 27.8672 60.1823 27.5781 59.4531 27.5781C58.7396 27.5781 58.1641 27.862 57.7266 28.4297C57.2891 28.9974 57.0703 29.8099 57.0703 30.8672ZM64.7422 30.6953C64.7422 29.8672 64.9036 29.1224 65.2266 28.4609C65.5547 27.7995 66.0078 27.2891 66.5859 26.9297C67.1693 26.5703 67.8333 26.3906 68.5781 26.3906C69.7292 26.3906 70.6589 26.7891 71.3672 27.5859C72.0807 28.3828 72.4375 29.4427 72.4375 30.7656V30.8672C72.4375 31.6901 72.2786 32.4297 71.9609 33.0859C71.6484 33.737 71.1979 34.2448 70.6094 34.6094C70.026 34.974 69.3542 35.1562 68.5938 35.1562C67.4479 35.1562 66.5182 34.7578 65.8047 33.9609C65.0964 33.1641 64.7422 32.1094 64.7422 30.7969V30.6953ZM66.1953 30.8672C66.1953 31.8047 66.4115 32.5573 66.8438 33.125C67.2812 33.6927 67.8646 33.9766 68.5938 33.9766C69.3281 33.9766 69.9115 33.6901 70.3438 33.1172C70.776 32.5391 70.9922 31.7318 70.9922 30.6953C70.9922 29.7682 70.7708 29.0182 70.3281 28.4453C69.8906 27.8672 69.3073 27.5781 68.5781 27.5781C67.8646 27.5781 67.2891 27.862 66.8516 28.4297C66.4141 28.9974 66.1953 29.8099 66.1953 30.8672ZM73.9062 30.7031C73.9062 29.3854 74.2109 28.3385 74.8203 27.5625C75.4297 26.7812 76.237 26.3906 77.2422 26.3906C78.2734 26.3906 79.0781 26.7552 79.6562 27.4844L79.7266 26.5469H81.0469V34.7969C81.0469 35.8906 80.7214 36.7526 80.0703 37.3828C79.4245 38.013 78.5547 38.3281 77.4609 38.3281C76.8516 38.3281 76.2552 38.1979 75.6719 37.9375C75.0885 37.6771 74.6432 37.3203 74.3359 36.8672L75.0859 36C75.7057 36.7656 76.4635 37.1484 77.3594 37.1484C78.0625 37.1484 78.6094 36.9505 79 36.5547C79.3958 36.1589 79.5938 35.6016 79.5938 34.8828V34.1562C79.0156 34.8229 78.2266 35.1562 77.2266 35.1562C76.237 35.1562 75.4349 34.7578 74.8203 33.9609C74.2109 33.1641 73.9062 32.0781 73.9062 30.7031ZM75.3594 30.8672C75.3594 31.8203 75.5547 32.5703 75.9453 33.1172C76.3359 33.6589 76.8828 33.9297 77.5859 33.9297C78.4974 33.9297 79.1667 33.5156 79.5938 32.6875V28.8281C79.151 28.0208 78.487 27.6172 77.6016 27.6172C76.8984 27.6172 76.349 27.8906 75.9531 28.4375C75.5573 28.9844 75.3594 29.7943 75.3594 30.8672ZM84.8047 35H83.3594V23H84.8047V35ZM90.6328 35.1562C89.487 35.1562 88.5547 34.7812 87.8359 34.0312C87.1172 33.276 86.7578 32.2682 86.7578 31.0078V30.7422C86.7578 29.9036 86.9167 29.1562 87.2344 28.5C87.5573 27.8385 88.0052 27.3229 88.5781 26.9531C89.1562 26.5781 89.7812 26.3906 90.4531 26.3906C91.5521 26.3906 92.4062 26.7526 93.0156 27.4766C93.625 28.2005 93.9297 29.237 93.9297 30.5859V31.1875H88.2031C88.224 32.0208 88.4661 32.6953 88.9297 33.2109C89.3984 33.7214 89.9922 33.9766 90.7109 33.9766C91.2214 33.9766 91.6536 33.8724 92.0078 33.6641C92.362 33.4557 92.6719 33.1797 92.9375 32.8359L93.8203 33.5234C93.112 34.612 92.0495 35.1562 90.6328 35.1562ZM90.4531 27.5781C89.8698 27.5781 89.3802 27.7917 88.9844 28.2188C88.5885 28.6406 88.3438 29.2344 88.25 30H92.4844V29.8906C92.4427 29.1562 92.2448 28.5885 91.8906 28.1875C91.5365 27.7812 91.0573 27.5781 90.4531 27.5781ZM101.305 30.5469V35H99.8047V23.625H104C105.245 23.625 106.219 23.9427 106.922 24.5781C107.63 25.2135 107.984 26.0547 107.984 27.1016C107.984 28.2057 107.638 29.0573 106.945 29.6562C106.258 30.25 105.271 30.5469 103.984 30.5469H101.305ZM101.305 29.3203H104C104.802 29.3203 105.417 29.1328 105.844 28.7578C106.271 28.3776 106.484 27.8307 106.484 27.1172C106.484 26.4401 106.271 25.8984 105.844 25.4922C105.417 25.0859 104.831 24.875 104.086 24.8594H101.305V29.3203ZM111.242 35H109.797V23H111.242V35ZM118.781 35C118.698 34.8333 118.63 34.5365 118.578 34.1094C117.906 34.8073 117.104 35.1562 116.172 35.1562C115.339 35.1562 114.654 34.9219 114.117 34.4531C113.586 33.9792 113.32 33.3802 113.32 32.6562C113.32 31.776 113.654 31.0938 114.32 30.6094C114.992 30.1198 115.935 29.875 117.148 29.875H118.555V29.2109C118.555 28.7057 118.404 28.3047 118.102 28.0078C117.799 27.7057 117.354 27.5547 116.766 27.5547C116.25 27.5547 115.818 27.6849 115.469 27.9453C115.12 28.2057 114.945 28.5208 114.945 28.8906H113.492C113.492 28.4688 113.641 28.0625 113.938 27.6719C114.24 27.276 114.646 26.9635 115.156 26.7344C115.672 26.5052 116.237 26.3906 116.852 26.3906C117.826 26.3906 118.589 26.6354 119.141 27.125C119.693 27.6094 119.979 28.2786 120 29.1328V33.0234C120 33.7995 120.099 34.4167 120.297 34.875V35H118.781ZM116.383 33.8984C116.836 33.8984 117.266 33.7812 117.672 33.5469C118.078 33.3125 118.372 33.0078 118.555 32.6328V30.8984H117.422C115.651 30.8984 114.766 31.4167 114.766 32.4531C114.766 32.9062 114.917 33.2604 115.219 33.5156C115.521 33.7708 115.909 33.8984 116.383 33.8984ZM124.906 32.8828L126.875 26.5469H128.422L125.023 36.3047C124.497 37.7109 123.661 38.4141 122.516 38.4141L122.242 38.3906L121.703 38.2891V37.1172L122.094 37.1484C122.583 37.1484 122.964 37.0495 123.234 36.8516C123.51 36.6536 123.737 36.2917 123.914 35.7656L124.234 34.9062L121.219 26.5469H122.797L124.906 32.8828Z" fill="white"/>
<path d="M12 34.29V12.713C12 11.96 12.437 11.309 13.07 11L25.551 23.498L13.065 36C12.7453 35.8431 12.4761 35.5997 12.2878 35.2974C12.0996 34.9951 11.9998 34.6461 12 34.29ZM29.511 27.462L15.864 35.352L26.627 24.575L29.511 27.462ZM33.753 21.989C34.207 22.336 34.5 22.885 34.5 23.501C34.5 24.109 34.216 24.649 33.774 24.998L30.874 26.674L27.703 23.498L30.873 20.323L33.753 21.989ZM15.872 11.65L29.509 19.534L26.627 22.419L15.872 11.65Z" fill="white"/>
</svg>
