<svg width="157" height="24" viewBox="0 0 157 24" fill="none" xmlns="http://www.w3.org/2000/svg">
<g clip-path="url(#clip0_175_617)">
<path d="M102.478 0.553142H89.6326C89.4899 0.553142 89.4186 0.622307 89.4186 0.760635C89.0617 6.36294 87.9913 12.4494 86.4213 17.3601V17.5676C86.4926 17.6367 86.564 17.6367 86.6354 17.6367H91.0599C91.1313 17.6367 91.274 17.5676 91.274 17.4984C92.4872 13.6944 93.4863 8.71453 93.8431 4.49551H98.0535V17.4292C98.0535 17.5676 98.1249 17.6367 98.2676 17.6367H102.478C102.621 17.6367 102.692 17.5676 102.692 17.4292V0.8298C102.692 0.691471 102.621 0.553142 102.478 0.553142ZM156.786 0.553142H152.575C152.433 0.553142 152.361 0.622307 152.361 0.760635V13.6252C151.434 13.9018 150.506 13.971 149.507 13.971C146.724 13.971 146.081 13.141 146.081 9.5445V0.8298C146.081 0.691471 146.01 0.622307 145.867 0.622307H141.657C141.514 0.622307 141.443 0.691471 141.443 0.8298V10.0978C141.443 15.9076 143.441 18.19 148.65 18.19C151.576 18.19 154.93 17.4292 156.857 16.7376C156.929 16.7376 157 16.5993 157 16.5301V0.8298C157 0.691471 156.929 0.553142 156.786 0.553142ZM67.9381 0.622307H63.6563C63.5136 0.622307 63.4422 0.691471 63.4422 0.760635C62.7999 3.31971 61.444 7.6079 59.5886 12.1036L55.3067 0.691471C55.3067 0.622307 55.164 0.553142 55.0926 0.553142H50.8108C50.7395 0.553142 50.6681 0.622307 50.5967 0.622307C50.5254 0.691471 50.5254 0.760635 50.5967 0.8298L57.0195 17.8442C56.3772 19.1583 55.7349 20.265 55.164 21.3024C54.7358 22.0632 54.3076 22.824 53.8795 23.654C53.8081 23.7232 53.8795 23.7923 53.8795 23.8615C53.9508 23.9307 54.0222 23.9998 54.0936 23.9998H58.7322C58.8036 23.9998 58.8749 23.9307 58.9463 23.8615C59.7313 22.409 60.7304 20.3341 61.6581 18.2592C64.3699 12.0344 66.5822 6.22461 68.2236 0.898964C68.2236 0.829799 68.2236 0.760635 68.1522 0.691471C68.0808 0.622307 68.0095 0.622307 67.9381 0.622307ZM83.2099 13.6944C83.2099 13.6252 83.1386 13.556 83.0672 13.556H82.8531C81.854 13.9018 79.9272 14.2477 78.5713 14.2477C75.6454 14.2477 74.2895 13.4869 74.2895 9.12951C74.2895 5.6713 74.7176 4.01136 78.5713 4.01136C79.6417 4.01136 80.7122 4.14968 81.9967 4.56467C82.1395 4.56467 82.2108 4.56467 82.2822 4.42634C82.7817 3.52721 83.3526 2.48974 83.9949 1.10646V0.898964C83.9949 0.829799 83.9236 0.760635 83.8522 0.760635C82.1395 0.207321 80.0699 -0.0693359 78.2858 -0.0693359C72.1486 -0.0693359 69.4367 2.69723 69.4367 8.99118C69.4367 15.3543 72.1486 18.19 78.2858 18.19C79.7845 18.19 82.8531 17.8442 84.2804 17.2909C84.4231 17.2217 84.4231 17.1526 84.4231 17.0142L83.2099 13.6944ZM123.102 0.622307H118.82C118.749 0.622307 118.606 0.691471 118.606 0.760635C117.964 3.31971 116.608 7.6079 114.753 12.1036L110.471 0.691471C110.471 0.622307 110.328 0.553142 110.257 0.553142H105.975C105.904 0.553142 105.832 0.622307 105.761 0.622307C105.689 0.691471 105.689 0.760635 105.761 0.8298L112.184 17.8442C111.541 19.1583 110.899 20.1958 110.328 21.3024C109.9 22.0632 109.472 22.824 109.044 23.654C108.972 23.7232 109.044 23.7923 109.044 23.8615C109.115 23.9307 109.186 23.9998 109.258 23.9998H113.896C113.968 23.9998 114.039 23.9307 114.11 23.8615C114.895 22.409 115.894 20.3341 116.822 18.2592C119.534 12.0344 121.746 6.22461 123.316 0.898964C123.316 0.829799 123.316 0.760635 123.245 0.691471C123.245 0.622307 123.174 0.622307 123.102 0.622307ZM138.802 0.553142H126.385C126.242 0.553142 126.171 0.622307 126.171 0.760635V17.4292C126.171 17.5676 126.242 17.6367 126.385 17.6367H130.595C130.738 17.6367 130.809 17.5676 130.809 17.4292V4.56467H137.304C137.375 4.56467 137.518 4.49551 137.518 4.42634C138.017 3.31971 138.517 2.07476 139.016 0.898964V0.691471C138.945 0.622307 138.874 0.553142 138.802 0.553142Z" fill="#EE3F58"/>
<path d="M22.3368 14.3862C19.5536 14.3862 18.6973 13.6254 18.6973 9.12968C18.6973 4.28818 19.625 3.8732 22.3368 3.8732C25.0486 3.8732 26.0477 4.28818 26.0477 9.12968C26.0477 13.6945 25.12 14.3862 22.3368 14.3862ZM22.3368 0.0691643C16.2709 0.0691643 13.9159 2.55908 13.9159 9.06052C13.9159 15.6311 16.2709 18.1902 22.3368 18.1902C28.4027 18.1902 30.8291 15.6311 30.8291 9.06052C30.8291 2.62824 28.4027 0.0691643 22.3368 0.0691643ZM47.5282 13.6945C47.5282 13.6254 47.4568 13.5562 47.3855 13.5562H47.1714C46.1723 13.902 44.2455 14.2478 42.8895 14.2478C39.9636 14.2478 38.6077 13.487 38.6077 9.12968C38.6077 5.67147 39.0359 4.01153 42.8895 4.01153C43.96 4.01153 45.0305 4.14986 46.315 4.56484C46.3864 4.56484 46.5291 4.56484 46.6005 4.42651C47.1 3.52738 47.6709 2.48991 48.3132 1.10663V0.899135C48.3132 0.829971 48.2418 0.760807 48.1705 0.760807C46.5291 0.276657 44.4595 0 42.6755 0C36.5382 0 33.8264 2.76657 33.8264 9.06052C33.8264 15.4236 36.5382 18.2594 42.6755 18.2594C44.1741 18.2594 47.2427 17.9135 48.67 17.3602C48.8127 17.2911 48.8127 17.2219 48.8127 17.0836L47.5282 13.6945ZM12.6314 0.553314H0.214091C0.0713636 0.553314 0 0.691643 0 0.829971V17.4986C0 17.6369 0.0713636 17.7061 0.214091 17.7061H4.42455C4.56727 17.7061 4.63864 17.6369 4.63864 17.4986V4.56484H11.1327C11.2041 4.56484 11.2755 4.49568 11.3468 4.42651C11.8464 3.31988 12.3459 2.07493 12.8455 0.899135V0.691643C12.7741 0.622478 12.7027 0.553314 12.6314 0.553314Z" fill="#0065B1"/>
</g>
<defs>
<clipPath id="clip0_175_617">
<rect width="157" height="24" fill="white"/>
</clipPath>
</defs>
</svg>
