<svg width="32" height="32" viewBox="0 0 32 32" fill="none" xmlns="http://www.w3.org/2000/svg">
<g clip-path="url(#clip0_174_581)">
<path d="M16 5.4961L14.566 4.0221C11.2 0.562097 5.02803 1.7561 2.80003 6.1061C1.75403 8.1521 1.51803 11.1061 3.42803 14.8761C5.26803 18.5061 9.09604 22.8541 16 27.5901C22.904 22.8541 26.73 18.5061 28.572 14.8761C30.482 11.1041 30.248 8.1521 29.2 6.1061C26.972 1.7561 20.8 0.560097 17.434 4.0201L16 5.4961ZM16 30.0001C-14.666 9.7361 6.55803 -6.0799 15.648 2.2861C15.768 2.3961 15.886 2.5101 16 2.6281C16.1129 2.5102 16.2303 2.39678 16.352 2.2881C25.44 -6.0839 46.666 9.7341 16 30.0001Z" fill="black"/>
</g>
<defs>
<clipPath id="clip0_174_581">
<rect width="32" height="32" fill="white"/>
</clipPath>
</defs>
</svg>
