<svg width="16" height="16" viewBox="0 0 16 16" fill="none" xmlns="http://www.w3.org/2000/svg">
<g clip-path="url(#clip0_2_67)">
<path d="M7.21251 11.2699C5.97213 11.1406 4.85375 10.8351 3.89624 10.0862C3.77744 9.99302 3.65477 9.90321 3.54635 9.79914C3.12725 9.39663 3.08503 8.93564 3.41665 8.46057C3.70035 8.05404 4.17659 7.94529 4.6716 8.17872C4.76745 8.22396 4.85878 8.28043 4.94625 8.3411C6.73073 9.56722 9.18215 9.60107 10.9733 8.39623C11.1508 8.26016 11.3405 8.14922 11.5603 8.09258C11.9878 7.98282 12.3865 8.13984 12.6159 8.51386C12.878 8.941 12.8746 9.35793 12.5517 9.68955C12.0564 10.198 11.4606 10.5658 10.7987 10.8225C10.1728 11.0652 9.4873 11.1873 8.8088 11.2684C8.91119 11.3799 8.95945 11.4347 9.02346 11.499C9.94478 12.4247 10.8701 13.3465 11.7884 14.275C12.1013 14.5914 12.1666 14.9837 11.9944 15.3517C11.806 15.7538 11.3844 16.0184 10.971 15.9901C10.7091 15.972 10.5048 15.8416 10.3233 15.6588C9.62806 14.9592 8.91974 14.2725 8.23855 13.5596C8.04031 13.3524 7.94497 13.3916 7.77002 13.5715C7.07057 14.2916 6.35973 15.0006 5.6447 15.7056C5.32363 16.0221 4.94156 16.0791 4.56922 15.8983C4.17341 15.7064 3.92155 15.3024 3.94099 14.8964C3.95439 14.6217 4.08946 14.4119 4.27798 14.2237C5.18974 13.3133 6.09899 12.4005 7.00857 11.4886C7.06873 11.4279 7.12487 11.3636 7.21251 11.2699Z" fill="black"/>
<path d="M7.96811 8.0986C5.75532 8.09106 3.94084 6.25664 3.95374 4.04033C3.96648 1.79955 5.78213 -0.00621478 8.01671 -1.45988e-05C10.2558 0.00601801 12.053 1.83775 12.0418 4.10183C12.0304 6.31362 10.2034 8.10631 7.96811 8.0986ZM9.97915 4.04569C9.9753 2.94524 9.09889 2.06917 8.00062 2.06817C6.89313 2.06699 6.00885 2.95898 6.0174 4.06948C6.02561 5.16574 6.90956 6.03561 8.01084 6.03159C9.10878 6.02774 9.98284 5.14597 9.97915 4.04569Z" fill="black"/>
</g>
<defs>
<clipPath id="clip0_2_67">
<rect width="16" height="16" fill="white"/>
</clipPath>
</defs>
</svg>
