<svg width="16" height="16" viewBox="0 0 16 16" fill="none" xmlns="http://www.w3.org/2000/svg">
<g clip-path="url(#clip0_108_79)">
<path d="M7.21251 11.2701C5.97213 11.1407 4.85375 10.8352 3.89624 10.0863C3.77744 9.99318 3.65477 9.90336 3.54635 9.7993C3.12725 9.39679 3.08503 8.93579 3.41665 8.46073C3.70035 8.0542 4.17659 7.94544 4.6716 8.17887C4.76745 8.22411 4.85878 8.28059 4.94625 8.34125C6.73073 9.56738 9.18215 9.60123 10.9733 8.39638C11.1508 8.26031 11.3405 8.14938 11.5603 8.09274C11.9878 7.98298 12.3865 8.13999 12.6159 8.51401C12.878 8.94116 12.8746 9.35808 12.5517 9.6897C12.0564 10.1981 11.4606 10.5659 10.7987 10.8227C10.1728 11.0653 9.4873 11.1875 8.8088 11.2686C8.91119 11.38 8.95945 11.4348 9.02346 11.4992C9.94478 12.4248 10.8701 13.3466 11.7884 14.2752C12.1013 14.5915 12.1666 14.9838 11.9944 15.3518C11.806 15.754 11.3844 16.0186 10.971 15.9903C10.7091 15.9722 10.5048 15.8418 10.3233 15.659C9.62806 14.9594 8.91974 14.2726 8.23855 13.5598C8.04031 13.3525 7.94497 13.3917 7.77002 13.5717C7.07057 14.2917 6.35973 15.0007 5.6447 15.7057C5.32363 16.0223 4.94156 16.0792 4.56922 15.8984C4.17341 15.7066 3.92155 15.3025 3.94099 14.8965C3.95439 14.6219 4.08946 14.4121 4.27798 14.2239C5.18974 13.3135 6.09899 12.4007 7.00857 11.4888C7.06873 11.4281 7.12487 11.3638 7.21251 11.2701Z" fill="white"/>
<path d="M7.96811 8.09863C5.75532 8.09109 3.94084 6.25667 3.95374 4.04036C3.96648 1.79958 5.78213 -0.00618427 8.01671 1.59188e-05C10.2558 0.00604853 12.053 1.83778 12.0418 4.10186C12.0304 6.31365 10.2034 8.10634 7.96811 8.09863ZM9.97915 4.04572C9.9753 2.94527 9.09889 2.0692 8.00062 2.0682C6.89313 2.06702 6.00885 2.95901 6.0174 4.06952C6.02561 5.16577 6.90956 6.03564 8.01084 6.03162C9.10878 6.02777 9.98284 5.146 9.97915 4.04572Z" fill="white"/>
</g>
<defs>
<clipPath id="clip0_108_79">
<rect width="16" height="16" fill="white"/>
</clipPath>
</defs>
</svg>
