<svg width="33" height="34" viewBox="0 0 33 34" fill="none" xmlns="http://www.w3.org/2000/svg">
<rect x="0.5" y="0.5" width="32" height="33" rx="16" fill="white" stroke="#E1E1E1"/>
<path fill-rule="evenodd" clip-rule="evenodd" d="M19.5155 10.646C19.5504 10.6924 19.5781 10.7476 19.597 10.8084C19.6159 10.8691 19.6257 10.9342 19.6257 11C19.6257 11.0658 19.6159 11.1309 19.597 11.1916C19.5781 11.2524 19.5504 11.3076 19.5155 11.354L15.2802 17L19.5155 22.646C19.5859 22.7399 19.6255 22.8672 19.6255 23C19.6255 23.1328 19.5859 23.2601 19.5155 23.354C19.4451 23.4479 19.3496 23.5006 19.25 23.5006C19.1504 23.5006 19.0549 23.4479 18.9845 23.354L14.4845 17.354C14.4496 17.3076 14.4219 17.2524 14.403 17.1916C14.3841 17.1309 14.3743 17.0658 14.3743 17C14.3743 16.9342 14.3841 16.8691 14.403 16.8084C14.4219 16.7476 14.4496 16.6924 14.4845 16.646L18.9845 10.646C19.0193 10.5994 19.0607 10.5625 19.1063 10.5373C19.1518 10.5121 19.2007 10.4991 19.25 10.4991C19.2993 10.4991 19.3482 10.5121 19.3937 10.5373C19.4393 10.5625 19.4807 10.5994 19.5155 10.646Z" fill="black"/>
</svg>
