<svg width="46" height="34" viewBox="0 0 46 34" fill="none" xmlns="http://www.w3.org/2000/svg">
<rect x="0.5" y="0.5" width="45" height="33" rx="16.5" fill="white" stroke="#E1E1E1"/>
<path fill-rule="evenodd" clip-rule="evenodd" d="M26.354 10.6459C26.4005 10.6924 26.4375 10.7475 26.4627 10.8083C26.4879 10.869 26.5009 10.9341 26.5009 10.9999C26.5009 11.0657 26.4879 11.1308 26.4627 11.1916C26.4375 11.2523 26.4005 11.3075 26.354 11.3539L20.707 16.9999L26.354 22.6459C26.4479 22.7398 26.5006 22.8671 26.5006 22.9999C26.5006 23.1327 26.4479 23.26 26.354 23.3539C26.2601 23.4478 26.1328 23.5005 26 23.5005C25.8672 23.5005 25.7399 23.4478 25.646 23.3539L19.646 17.3539C19.5994 17.3075 19.5625 17.2523 19.5373 17.1916C19.5121 17.1308 19.4991 17.0657 19.4991 16.9999C19.4991 16.9341 19.5121 16.869 19.5373 16.8083C19.5625 16.7475 19.5994 16.6924 19.646 16.6459L25.646 10.6459C25.6924 10.5994 25.7476 10.5624 25.8083 10.5372C25.8691 10.512 25.9342 10.499 26 10.499C26.0657 10.499 26.1309 10.512 26.1916 10.5372C26.2524 10.5624 26.3075 10.5994 26.354 10.6459Z" fill="black"/>
</svg>
