<svg width="16" height="16" viewBox="0 0 16 16" fill="none" xmlns="http://www.w3.org/2000/svg">
<g clip-path="url(#clip0_108_77)">
<path d="M14.2416 9.83827C14.2416 9.83827 15.5352 11.1159 15.8552 11.7071C15.8614 11.7156 15.8663 11.725 15.8696 11.7351C16 11.9535 16.032 12.1247 15.968 12.2511C15.86 12.4599 15.4944 12.5647 15.3704 12.5735H13.084C12.9248 12.5735 12.5936 12.5319 12.1904 12.2535C11.8824 12.0383 11.576 11.6839 11.2792 11.3375C10.836 10.8231 10.4528 10.3767 10.0648 10.3767C10.0158 10.3766 9.96713 10.3847 9.92081 10.4007C9.62721 10.4935 9.25441 10.9119 9.25441 12.0263C9.25441 12.3751 8.97921 12.5735 8.78641 12.5735H7.73921C7.38241 12.5735 5.52481 12.4487 3.87761 10.7119C1.85921 8.58547 0.046411 4.31987 0.028811 4.28227C-0.083989 4.00627 0.152811 3.85587 0.408811 3.85587H2.71761C3.02721 3.85587 3.12801 4.04307 3.19841 4.21107C3.28001 4.40387 3.58241 5.17507 4.07841 6.04147C4.88161 7.45107 5.37521 8.02467 5.76961 8.02467C5.84371 8.02489 5.91656 8.00557 5.98081 7.96867C6.49601 7.68547 6.40001 5.84547 6.37601 5.46627C6.37601 5.39267 6.37521 4.64467 6.11121 4.28307C5.92241 4.02387 5.60081 3.92307 5.40641 3.88627C5.45841 3.81107 5.56881 3.69587 5.71041 3.62787C6.06321 3.45187 6.70081 3.42627 7.33361 3.42627H7.68481C8.37121 3.43587 8.54881 3.47987 8.79841 3.54307C9.30081 3.66307 9.31041 3.98867 9.26641 5.09747C9.25361 5.41427 9.24001 5.77107 9.24001 6.19107C9.24001 6.28067 9.23601 6.38067 9.23601 6.48227C9.22081 7.05107 9.20081 7.69187 9.60241 7.95507C9.6545 7.98752 9.71464 8.0047 9.77601 8.00467C9.91521 8.00467 10.332 8.00467 11.4624 6.06467C11.9584 5.20787 12.3424 4.19747 12.3688 4.12147C12.3912 4.07907 12.4584 3.95987 12.54 3.91187C12.5981 3.88099 12.6631 3.86556 12.7288 3.86707H15.4448C15.7408 3.86707 15.9416 3.91187 15.9808 4.02387C16.0464 4.20547 15.968 4.75987 14.728 6.43667C14.5192 6.71587 14.336 6.95747 14.1752 7.16867C13.0512 8.64387 13.0512 8.71827 14.2416 9.83827Z" fill="white"/>
</g>
<defs>
<clipPath id="clip0_108_77">
<rect width="16" height="16" fill="white"/>
</clipPath>
</defs>
</svg>
