<svg width="16" height="16" viewBox="0 0 16 16" fill="none" xmlns="http://www.w3.org/2000/svg">
<g clip-path="url(#clip0_2_87)">
<path d="M14.2416 9.83839C14.2416 9.83839 15.5352 11.116 15.8552 11.7072C15.8614 11.7157 15.8663 11.7252 15.8696 11.7352C16 11.9536 16.032 12.1248 15.968 12.2512C15.86 12.46 15.4944 12.5648 15.3704 12.5736H13.084C12.9248 12.5736 12.5936 12.532 12.1904 12.2536C11.8824 12.0384 11.576 11.684 11.2792 11.3376C10.836 10.8232 10.4528 10.3768 10.0648 10.3768C10.0158 10.3767 9.96713 10.3848 9.92081 10.4008C9.62721 10.4936 9.25441 10.912 9.25441 12.0264C9.25441 12.3752 8.97921 12.5736 8.78641 12.5736H7.73921C7.38241 12.5736 5.52481 12.4488 3.87761 10.712C1.85921 8.58559 0.046411 4.31999 0.028811 4.28239C-0.083989 4.00639 0.152811 3.85599 0.408811 3.85599H2.71761C3.02721 3.85599 3.12801 4.04319 3.19841 4.21119C3.28001 4.40399 3.58241 5.17519 4.07841 6.04159C4.88161 7.45119 5.37521 8.02479 5.76961 8.02479C5.84371 8.02501 5.91656 8.00569 5.98081 7.96879C6.49601 7.68559 6.40001 5.84559 6.37601 5.46639C6.37601 5.39279 6.37521 4.64479 6.11121 4.28319C5.92241 4.02399 5.60081 3.92319 5.40641 3.88639C5.45841 3.81119 5.56881 3.69599 5.71041 3.62799C6.06321 3.45199 6.70081 3.42639 7.33361 3.42639H7.68481C8.37121 3.43599 8.54881 3.47999 8.79841 3.54319C9.30081 3.66319 9.31041 3.98879 9.26641 5.09759C9.25361 5.41439 9.24001 5.77119 9.24001 6.19119C9.24001 6.28079 9.23601 6.38079 9.23601 6.48239C9.22081 7.05119 9.20081 7.69199 9.60241 7.95519C9.6545 7.98764 9.71464 8.00482 9.77601 8.00479C9.91521 8.00479 10.332 8.00479 11.4624 6.06479C11.9584 5.20799 12.3424 4.19759 12.3688 4.12159C12.3912 4.07919 12.4584 3.95999 12.54 3.91199C12.5981 3.88111 12.6631 3.86568 12.7288 3.86719H15.4448C15.7408 3.86719 15.9416 3.91199 15.9808 4.02399C16.0464 4.20559 15.968 4.75999 14.728 6.43679C14.5192 6.71599 14.336 6.95759 14.1752 7.16879C13.0512 8.64399 13.0512 8.71839 14.2416 9.83839Z" fill="black"/>
</g>
<defs>
<clipPath id="clip0_2_87">
<rect width="16" height="16" fill="white"/>
</clipPath>
</defs>
</svg>
